<svg width="24" height="25" viewBox="0 0 24 25" fill="none" xmlns="http://www.w3.org/2000/svg">
<path d="M18.5602 4.14111H7.79164C6.80188 4.14111 5.99773 4.94525 5.99773 5.93502V7.72916H4.80172C4.14172 7.72916 3.60547 8.26518 3.60547 8.92518V16.1057C3.60547 16.7655 4.14172 17.3015 4.80172 17.3015H5.99773V19.0954C5.99773 20.0854 6.80211 20.8896 7.79164 20.8896H18.5602C19.55 20.8896 20.3541 20.0852 20.3541 19.0956V5.93502C20.3565 4.94502 19.55 4.14111 18.5602 4.14111ZM5.72398 11.1396H6.66805L7.27836 13.3328H7.41195L8.09539 11.1396H8.90281L9.58297 13.3359H9.72922L10.3428 11.1396H11.2899L10.3428 14.2736H9.00148L8.54375 12.6271H8.41648L7.96508 14.2673H6.65867L5.72398 11.1396ZM19.1581 19.0975C19.1579 19.4278 18.8905 19.6952 18.5602 19.6954H7.79164C7.46141 19.6952 7.19398 19.4275 7.19375 19.0975V17.3036H11.9799C12.6397 17.3036 13.1759 16.7674 13.1759 16.1076V14.9116H17.364C17.6942 14.9113 17.9619 14.6437 17.9621 14.3135C17.9616 13.9832 17.6942 13.7158 17.364 13.7156H13.1759V12.5196H17.364C17.6942 12.5193 17.9619 12.2517 17.9621 11.9214C17.9619 11.5912 17.6942 11.3238 17.364 11.3233H13.1759V10.1273H17.364C17.6942 10.1271 17.9619 9.85939 17.9621 9.52939C17.9619 9.19916 17.6942 8.9315 17.364 8.93127H13.1759C13.1759 8.27127 12.6395 7.73525 11.9799 7.73525H7.19375V5.94135C7.19398 5.61111 7.46164 5.34369 7.79164 5.34322H18.5602C18.8902 5.34346 19.1579 5.61111 19.1581 5.94135V19.0975Z" fill="#54A0FF"/>
</svg>
