<svg width="96" height="100" viewBox="0 0 96 100" fill="none" xmlns="http://www.w3.org/2000/svg">
<path fill-rule="evenodd" clip-rule="evenodd" d="M35.4513 0.915374C36.2698 1.40679 36.8596 2.20321 37.0909 3.12946C37.3222 4.05571 37.1762 5.03591 36.6848 5.85447L22.2851 29.854C21.7889 30.6624 20.9936 31.2423 20.0722 31.4676C19.1507 31.6929 18.1776 31.5454 17.3643 31.0572C16.551 30.569 15.9632 29.7795 15.7288 28.8603C15.4944 27.9411 15.6323 26.9666 16.1125 26.1485L30.5122 2.14895C31.0036 1.33044 31.8 0.740648 32.7263 0.509311C33.6525 0.277974 34.6327 0.424038 35.4513 0.915374ZM78.6504 31.0876C78.2449 31.3316 77.7952 31.4933 77.3272 31.5634C76.8591 31.6334 76.3819 31.6105 75.9227 31.4959C75.4635 31.3814 75.0314 31.1774 74.6511 30.8956C74.2708 30.6139 73.9498 30.2599 73.7065 29.854L59.3068 5.85447C59.0635 5.44885 58.9025 4.99928 58.8329 4.53143C58.7633 4.06358 58.7866 3.58661 58.9014 3.12774C59.0161 2.66888 59.2202 2.23712 59.5018 1.85711C59.7834 1.4771 60.1371 1.15628 60.5428 0.912974C60.9484 0.669666 61.398 0.508632 61.8658 0.439069C62.3337 0.369505 62.8106 0.392773 63.2695 0.507543C63.7284 0.622314 64.1601 0.826341 64.5401 1.10797C64.9201 1.38961 65.241 1.74333 65.4843 2.14895L79.884 26.1485C80.128 26.554 80.2897 27.0036 80.3598 27.4717C80.4298 27.9397 80.4069 28.417 80.2924 28.8762C80.1778 29.3354 79.9738 29.7675 79.692 30.1478C79.4103 30.528 79.0563 30.8442 78.6504 31.0876Z" fill="#A5B6DD"/>
<path d="M87.7522 84.6783C86.8881 88.9885 84.5614 92.8677 81.166 95.6596C77.7705 98.4516 73.5148 99.9847 69.1189 99.9996H26.8798C22.4837 99.9856 18.2275 98.4528 14.8319 95.6607C11.4362 92.8686 9.10984 88.9889 8.24657 84.6783L0.398731 46.2791C-2.03482 34.3657 6.9794 23.2012 19.032 23.2012H76.9668C89.0193 23.2012 98.0384 34.3657 95.6 46.2791L87.7522 84.6783Z" fill="#A5B6DD"/>
<path d="M76.9665 23.2012H19.0317C8.29908 23.2012 -0.0239477 32.0522 5.17705e-05 42.4008H95.9981C96.0173 32.0522 87.6943 23.2012 76.9665 23.2012Z" fill="#2155CB"/>
<path fill-rule="evenodd" clip-rule="evenodd" d="M44.4005 76.9122L40.9446 73.4563C40.615 73.1026 40.2176 72.8189 39.776 72.6221C39.3344 72.4254 38.8577 72.3196 38.3744 72.3111C37.891 72.3025 37.4109 72.3914 36.9626 72.5725C36.5144 72.7536 36.1072 73.0231 35.7653 73.3649C35.4235 73.7067 35.154 74.1139 34.9729 74.5622C34.7919 75.0104 34.703 75.4906 34.7115 75.9739C34.72 76.4573 34.8258 76.934 35.0226 77.3756C35.2193 77.8172 35.503 78.2146 35.8567 78.5442L42.063 84.7504C43.6381 86.3244 45.7737 87.2086 48.0005 87.2086C50.2272 87.2086 52.3629 86.3244 53.938 84.7504L60.1442 78.5442C60.7801 77.8618 61.1263 76.9591 61.1098 76.0265C61.0934 75.0939 60.7156 74.2041 60.056 73.5445C59.3964 72.8849 58.5066 72.5071 57.574 72.4907C56.6414 72.4742 55.7388 72.8204 55.0563 73.4563L51.6004 76.9122V56.8006C51.6004 56.3279 51.5073 55.8597 51.3264 55.423C51.1455 54.9862 50.8803 54.5894 50.546 54.2551C50.2117 53.9208 49.8149 53.6556 49.3781 53.4747C48.9413 53.2938 48.4732 53.2007 48.0005 53.2007C47.5277 53.2007 47.0596 53.2938 46.6228 53.4747C46.1861 53.6556 45.7892 53.9208 45.4549 54.2551C45.1207 54.5894 44.8555 54.9862 44.6746 55.423C44.4937 55.8597 44.4005 56.3279 44.4005 56.8006V76.9122Z" fill="#2155CB"/>
</svg>
