<svg width="24" height="25" viewBox="0 0 24 25" fill="none" xmlns="http://www.w3.org/2000/svg">
<path d="M15.5522 2.375H4.57656C3.831 2.375 3.22656 2.97944 3.22656 3.725V21.9501C3.22656 22.3228 3.37752 22.6604 3.62208 22.9046C3.74728 23.0301 3.89606 23.1297 4.05986 23.1976C4.22366 23.2655 4.39926 23.3003 4.57656 23.3001H19.4266C20.1721 23.3001 20.7766 22.6957 20.7766 21.9501V7.59932L15.5522 2.375Z" fill="black"/>
<path d="M15.5522 1.7002H4.57656C3.831 1.7002 3.22656 2.30464 3.22656 3.0502V21.2753C3.22656 21.648 3.37752 21.9856 3.62208 22.2298C3.74728 22.3553 3.89606 22.4549 4.05986 22.5228C4.22366 22.5907 4.39926 22.6255 4.57656 22.6253H19.4266C20.1721 22.6253 20.7766 22.0209 20.7766 21.2753V6.92452L15.5522 1.7002Z" fill="#EF4A4A"/>
<path d="M17.9172 4.06641L15.5586 6.42489L20.775 11.6413V6.92421L17.9172 4.06641Z" fill="black"/>
<path d="M15.5507 1.7002H15.375V5.7502C15.375 6.49576 15.9794 7.1002 16.725 7.1002H20.775V6.92452L15.5507 1.7002Z" fill="#F19A9A"/>
<path d="M16.1435 14.1709C16.4734 14.3562 16.4263 14.4949 16.6619 14.3096C16.8976 14.1244 16.4263 13.893 16.0493 13.7542C15.6722 13.6153 13.8807 13.396 13.8807 13.396C13.8807 13.396 13.9936 13.5474 14.1466 13.7023C14.4308 13.845 14.6841 13.9383 14.8711 14.0299C15.2543 14.0232 15.8651 14.0146 16.1435 14.1709ZM16.6521 14.6774C16.4164 14.5387 15.5305 14.4022 14.9649 14.0782C14.9362 14.0617 14.9038 14.0458 14.8709 14.0299C14.7998 14.0308 14.7338 14.0322 14.6822 14.0322C14.5131 14.0322 14.3074 13.865 14.1465 13.7023C13.4884 13.372 12.6677 12.7708 12.1364 11.267C12.1364 11.267 11.8064 10.0633 11.7593 9.64676C11.7122 9.23048 11.9007 8.8136 11.9949 9.18404C11.9949 9.18404 12.1834 9.60068 12.0892 9.92456L12.1835 10.4799C12.1835 10.4799 12.5134 9.27668 12.2777 8.95232C12.2777 8.95232 11.3872 8.44352 11.3402 9.23048C11.293 10.0172 11.3896 11.1672 11.4838 11.3524C11.4838 11.3524 10.5484 14.1708 9.32275 15.8836C9.32275 15.8836 8.80435 16.6239 8.56867 16.7168C8.56867 16.7168 8.00275 16.9483 8.37979 16.439C8.37979 16.439 9.27559 15.4207 9.46411 15.143C9.46411 15.143 7.82407 16.0689 7.72975 16.2999C7.63555 16.5316 7.40215 16.9968 8.00263 17.2258C8.00263 17.2258 8.69515 17.2819 9.21355 16.7265C9.21355 16.7265 10.4294 15.2431 10.6651 14.7802C10.6651 14.7802 11.4293 14.5 13.9748 14.0371C13.9748 14.0371 15.3419 14.6804 15.7665 14.7727C16.1906 14.8656 16.3791 15.1893 16.3791 15.1893C16.3791 15.1893 16.8878 14.8166 16.6521 14.6774ZM10.9009 14.183L11.8984 12.2266C11.9927 12.6897 12.9106 13.5838 12.9106 13.5838C12.5336 13.63 10.9009 14.183 10.9009 14.183Z" fill="black"/>
<path d="M16.1435 13.4961C16.4734 13.6814 16.4263 13.8201 16.6619 13.6348C16.8976 13.45 16.4263 13.2185 16.0493 13.0794C15.6722 12.9405 13.8807 12.7212 13.8807 12.7212C13.8807 12.7212 13.9936 12.8726 14.1466 13.0275C14.4308 13.1702 14.6841 13.2635 14.8711 13.3551C15.2543 13.3484 15.8651 13.3398 16.1435 13.4961ZM16.6521 14.0026C16.4164 13.8639 15.5305 13.7274 14.9649 13.4034C14.9362 13.3869 14.9038 13.371 14.8709 13.3551C14.7998 13.356 14.7338 13.3574 14.6822 13.3574C14.5131 13.3574 14.3074 13.1902 14.1465 13.0275C13.4884 12.6972 12.6677 12.096 12.1364 10.5922C12.1364 10.5922 11.8064 9.38848 11.7593 8.97196C11.7122 8.55568 11.9007 8.1388 11.9949 8.50924C11.9949 8.50924 12.1834 8.92588 12.0892 9.24976L12.1835 9.80512C12.1835 9.80512 12.5134 8.60188 12.2777 8.27752C12.2777 8.27752 11.3872 7.76872 11.3402 8.55568C11.293 9.3424 11.3896 10.4924 11.4838 10.6776C11.4838 10.6776 10.5484 13.496 9.32275 15.2088C9.32275 15.2088 8.80435 15.9491 8.56867 16.042C8.56867 16.042 8.00275 16.2735 8.37979 15.7642C8.37979 15.7642 9.27559 14.7459 9.46411 14.4682C9.46411 14.4682 7.82407 15.3941 7.72975 15.6251C7.63555 15.8568 7.40215 16.322 8.00263 16.551C8.00263 16.551 8.69515 16.6071 9.21355 16.0517C9.21355 16.0517 10.4294 14.5683 10.6651 14.1054C10.6651 14.1054 11.4293 13.8252 13.9748 13.3623C13.9748 13.3623 15.3419 14.0056 15.7665 14.0979C16.1906 14.1908 16.3791 14.5145 16.3791 14.5145C16.3791 14.5145 16.8878 14.1418 16.6521 14.0026ZM10.9009 13.5082L11.8984 11.5518C11.9927 12.0149 12.9106 12.909 12.9106 12.909C12.5336 12.9552 10.9009 13.5082 10.9009 13.5082Z" fill="white"/>
</svg>
